<svg xmlns="http://www.w3.org/2000/svg" width="800" height="450" viewBox="0 0 800 450"><path fill="#fff" d="M0 0h800v450H0z"/><path stroke="#e0e0e0" stroke-dasharray="3,3" stroke-width=".6" d="M60 405h710M60 363.75h710M60 322.5h710M60 281.25h710M60 240h710M60 198.75h710M60 157.5h710M60 116.25h710M60 75h710"/><g fill="none" filter="none" font-family="sans-serif" font-size="10" text-anchor="middle"><path stroke="#000" stroke-width="1.5" d="M60.5 405.5h710" class="domain"/><g class="tick"><text y="8" fill="#000" dy=".71em" font-size="12" font-weight="500" transform="translate(171.71 405)">2023</text></g><g class="tick"><text y="8" fill="#000" dy=".71em" font-size="12" font-weight="500" transform="translate(342.092 405)">2024</text></g><g class="tick"><text y="8" fill="#000" dy=".71em" font-size="12" font-weight="500" transform="translate(512.94 405)">2025</text></g><g class="tick"><text y="8" fill="#000" dy=".71em" font-size="12" font-weight="500" transform="translate(683.322 405)">2026</text></g></g><g fill="none" filter="none" font-family="sans-serif" font-size="10" text-anchor="end"><path stroke="#000" stroke-width="1.5" d="M60.5 405.5v-330" class="domain"/><g class="tick"><text x="-8" fill="#000" dy=".32em" font-size="12" font-weight="500" transform="translate(60 405.5)">0</text></g><g class="tick"><text x="-8" fill="#000" dy=".32em" font-size="12" font-weight="500" transform="translate(60 364.25)">1</text></g><g class="tick"><text x="-8" fill="#000" dy=".32em" font-size="12" font-weight="500" transform="translate(60 323)">2</text></g><g class="tick"><text x="-8" fill="#000" dy=".32em" font-size="12" font-weight="500" transform="translate(60 281.75)">3</text></g><g class="tick"><text x="-8" fill="#000" dy=".32em" font-size="12" font-weight="500" transform="translate(60 240.5)">4</text></g><g class="tick"><text x="-8" fill="#000" dy=".32em" font-size="12" font-weight="500" transform="translate(60 199.25)">5</text></g><g class="tick"><text x="-8" fill="#000" dy=".32em" font-size="12" font-weight="500" transform="translate(60 158)">6</text></g><g class="tick"><text x="-8" fill="#000" dy=".32em" font-size="12" font-weight="500" transform="translate(60 116.75)">7</text></g><g class="tick"><text x="-8" fill="#000" dy=".32em" font-size="12" font-weight="500" transform="translate(60 75.5)">8</text></g></g><g transform="translate(60 75)"><path fill="#dd4528" fill-opacity=".08" d="m0 330 .467-41.25 35.385-41.25 32.36-41.25L74.805 165l.722-41.25L236.719 82.5 710 41.25V330z"/><path fill="none" stroke="#dd4528" stroke-linecap="round" stroke-linejoin="round" stroke-width="2.5" d="M0 330c.156-20.444.311-40.887.467-41.25 11.795-27.5 23.59-26.829 35.385-41.25 10.787-13.188 21.574-13.75 32.36-41.25 2.198-5.602 4.395-13.75 6.593-41.25.241-3.011.481-41.127.722-41.25 53.731-27.5 107.462-31.884 161.192-41.25C394.48 55 552.24 48.125 710 41.25" filter="none"/><circle cx="710" cy="41.25" r="3.5" fill="#dd4528" stroke="#fff" stroke-width="1.5" filter="none"/></g><text x="60" y="28" filter="none" font-size="16" font-weight="bold">Star History CLI - narayann7/DataStructureAndAlgorithm</text><g transform="translate(68 83)"><rect width="317.5" height="44" x="-10" y="-10" fill="#fff" fill-opacity=".92" stroke="#000" stroke-width=".5" filter="none" rx="6"/><g><path stroke="#dd4528" stroke-linecap="round" stroke-width="2.5" d="M0 7h16"/><circle cx="8" cy="7" r="2.5" fill="#dd4528"/><text x="24" y="11" font-size="12">narayann7/DataStructureAndAlgorithm</text></g></g><text x="790" y="440" fill="#8b949e" font-size="11" text-anchor="end">Generated by star-history-cli</text></svg>